# Blender 3.6.2
# www.blender.org
mtllib 21.mtl
o Cube.001
v 0.440952 5.489014 -18.044743
v 0.440952 0.156020 -18.044743
v 0.440952 5.489014 -18.977558
v 0.440952 0.156020 -18.977558
v -0.440952 5.489014 -18.044743
v -0.440952 0.156020 -18.044743
v -0.440952 5.489014 -18.977558
v -0.440952 0.156020 -18.977558
vn -0.0000 1.0000 -0.0000
vn -0.0000 -0.0000 -1.0000
vn -1.0000 -0.0000 -0.0000
vn -0.0000 -1.0000 -0.0000
vn 1.0000 -0.0000 -0.0000
vn -0.0000 -0.0000 1.0000
vt 0.625000 0.500000
vt 0.875000 0.500000
vt 0.875000 0.750000
vt 0.625000 0.750000
vt 0.375000 0.750000
vt 0.625000 1.000000
vt 0.375000 1.000000
vt 0.375000 0.000000
vt 0.625000 0.000000
vt 0.625000 0.250000
vt 0.375000 0.250000
vt 0.125000 0.500000
vt 0.375000 0.500000
vt 0.125000 0.750000
s 0
usemtl Material.001
f 1/1/1 3/4/1 7/3/1 5/2/1
f 4/5/2 8/7/2 7/6/2 3/4/2
f 8/8/3 6/11/3 5/10/3 7/9/3
f 6/12/4 8/14/4 4/5/4 2/13/4
f 2/13/5 4/5/5 3/4/5 1/1/5
f 6/11/6 2/13/6 1/1/6 5/10/6
o Cube.002
v 0.440952 5.489014 -22.490005
v 0.440952 0.156020 -22.490005
v 0.440952 5.489014 -23.422821
v 0.440952 0.156020 -23.422821
v -0.440952 5.489014 -22.490005
v -0.440952 0.156020 -22.490005
v -0.440952 5.489014 -23.422821
v -0.440952 0.156020 -23.422821
vn -0.0000 1.0000 -0.0000
vn -0.0000 -0.0000 -1.0000
vn -1.0000 -0.0000 -0.0000
vn -0.0000 -1.0000 -0.0000
vn 1.0000 -0.0000 -0.0000
vn -0.0000 -0.0000 1.0000
vt 0.625000 0.500000
vt 0.875000 0.500000
vt 0.875000 0.750000
vt 0.625000 0.750000
vt 0.375000 0.750000
vt 0.625000 1.000000
vt 0.375000 1.000000
vt 0.375000 0.000000
vt 0.625000 0.000000
vt 0.625000 0.250000
vt 0.375000 0.250000
vt 0.125000 0.500000
vt 0.375000 0.500000
vt 0.125000 0.750000
s 0
usemtl Material.002
f 9/15/7 11/18/7 15/17/7 13/16/7
f 12/19/8 16/21/8 15/20/8 11/18/8
f 16/22/9 14/25/9 13/24/9 15/23/9
f 14/26/10 16/28/10 12/19/10 10/27/10
f 10/27/11 12/19/11 11/18/11 9/15/11
f 14/25/12 10/27/12 9/15/12 13/24/12
o Cube.003
v 0.440952 5.693238 -23.523369
v 0.440952 5.693237 -18.190376
v 0.440952 4.760421 -23.523369
v 0.440952 4.760420 -18.190376
v -0.440952 5.693238 -23.523369
v -0.440952 5.693237 -18.190376
v -0.440952 4.760421 -23.523369
v -0.440952 4.760420 -18.190376
vn -0.0000 -0.0000 -1.0000
vn -0.0000 -1.0000 -0.0000
vn -1.0000 -0.0000 -0.0000
vn -0.0000 -0.0000 1.0000
vn 1.0000 -0.0000 -0.0000
vn -0.0000 1.0000 -0.0000
vt 0.625000 0.500000
vt 0.875000 0.500000
vt 0.875000 0.750000
vt 0.625000 0.750000
vt 0.375000 0.750000
vt 0.625000 1.000000
vt 0.375000 1.000000
vt 0.375000 0.000000
vt 0.625000 0.000000
vt 0.625000 0.250000
vt 0.375000 0.250000
vt 0.125000 0.500000
vt 0.375000 0.500000
vt 0.125000 0.750000
s 0
usemtl Material.003
f 17/29/13 19/32/13 23/31/13 21/30/13
f 20/33/14 24/35/14 23/34/14 19/32/14
f 24/36/15 22/39/15 21/38/15 23/37/15
f 22/40/16 24/42/16 20/33/16 18/41/16
f 18/41/17 20/33/17 19/32/17 17/29/17
f 22/39/18 18/41/18 17/29/18 21/38/18
o Cube.004
v 0.440952 0.715296 -23.455643
v 0.440952 0.715295 -18.122650
v 0.440952 -0.217521 -23.455643
v 0.440952 -0.217521 -18.122650
v -0.440952 0.715296 -23.455643
v -0.440952 0.715295 -18.122650
v -0.440952 -0.217521 -23.455643
v -0.440952 -0.217521 -18.122650
vn -0.0000 -0.0000 -1.0000
vn -0.0000 -1.0000 -0.0000
vn -1.0000 -0.0000 -0.0000
vn -0.0000 -0.0000 1.0000
vn 1.0000 -0.0000 -0.0000
vn -0.0000 1.0000 -0.0000
vt 0.625000 0.500000
vt 0.875000 0.500000
vt 0.875000 0.750000
vt 0.625000 0.750000
vt 0.375000 0.750000
vt 0.625000 1.000000
vt 0.375000 1.000000
vt 0.375000 0.000000
vt 0.625000 0.000000
vt 0.625000 0.250000
vt 0.375000 0.250000
vt 0.125000 0.500000
vt 0.375000 0.500000
vt 0.125000 0.750000
s 0
usemtl Material.004
f 25/43/19 27/46/19 31/45/19 29/44/19
f 28/47/20 32/49/20 31/48/20 27/46/20
f 32/50/21 30/53/21 29/52/21 31/51/21
f 30/54/22 32/56/22 28/47/22 26/55/22
f 26/55/23 28/47/23 27/46/23 25/43/23
f 30/53/24 26/55/24 25/43/24 29/52/24
o Cube.005
v 0.440952 11.097801 -22.490005
v 0.440952 -0.102326 -22.490005
v 0.440952 11.097801 -23.422821
v 0.440952 -0.102326 -23.422821
v -0.440952 11.097801 -22.490005
v -0.440952 -0.102326 -22.490005
v -0.440952 11.097801 -23.422821
v -0.440952 -0.102326 -23.422821
vn -0.0000 1.0000 -0.0000
vn -0.0000 -0.0000 -1.0000
vn -1.0000 -0.0000 -0.0000
vn -0.0000 -1.0000 -0.0000
vn 1.0000 -0.0000 -0.0000
vn -0.0000 -0.0000 1.0000
vt 0.625000 0.500000
vt 0.875000 0.500000
vt 0.875000 0.750000
vt 0.625000 0.750000
vt 0.375000 0.750000
vt 0.625000 1.000000
vt 0.375000 1.000000
vt 0.375000 0.000000
vt 0.625000 0.000000
vt 0.625000 0.250000
vt 0.375000 0.250000
vt 0.125000 0.500000
vt 0.375000 0.500000
vt 0.125000 0.750000
s 0
usemtl Material.005
f 33/57/25 35/60/25 39/59/25 37/58/25
f 36/61/26 40/63/26 39/62/26 35/60/26
f 40/64/27 38/67/27 37/66/27 39/65/27
f 38/68/28 40/70/28 36/61/28 34/69/28
f 34/69/29 36/61/29 35/60/29 33/57/29
f 38/67/30 34/69/30 33/57/30 37/66/30
o Cube.006
v 0.440952 10.806635 -23.320189
v 0.440952 10.806634 -17.987196
v 0.440952 9.873818 -23.320189
v 0.440952 9.873817 -17.987196
v -0.440952 10.806635 -23.320189
v -0.440952 10.806634 -17.987196
v -0.440952 9.873818 -23.320189
v -0.440952 9.873817 -17.987196
vn -0.0000 -0.0000 -1.0000
vn -0.0000 -1.0000 -0.0000
vn -1.0000 -0.0000 -0.0000
vn -0.0000 -0.0000 1.0000
vn 1.0000 -0.0000 -0.0000
vn -0.0000 1.0000 -0.0000
vt 0.625000 0.500000
vt 0.875000 0.500000
vt 0.875000 0.750000
vt 0.625000 0.750000
vt 0.375000 0.750000
vt 0.625000 1.000000
vt 0.375000 1.000000
vt 0.375000 0.000000
vt 0.625000 0.000000
vt 0.625000 0.250000
vt 0.375000 0.250000
vt 0.125000 0.500000
vt 0.375000 0.500000
vt 0.125000 0.750000
s 0
usemtl Material.006
f 41/71/31 43/74/31 47/73/31 45/72/31
f 44/75/32 48/77/32 47/76/32 43/74/32
f 48/78/33 46/81/33 45/80/33 47/79/33
f 46/82/34 48/84/34 44/75/34 42/83/34
f 42/83/35 44/75/35 43/74/35 41/71/35
f 46/81/36 42/83/36 41/71/36 45/80/36
o Cube.009
v 0.440952 0.715296 -15.633163
v 0.440952 0.715295 -10.300169
v 0.440952 -0.217521 -15.633163
v 0.440952 -0.217521 -10.300169
v -0.440952 0.715296 -15.633163
v -0.440952 0.715295 -10.300169
v -0.440952 -0.217521 -15.633163
v -0.440952 -0.217521 -10.300169
vn -0.0000 -0.0000 -1.0000
vn -0.0000 -1.0000 -0.0000
vn -1.0000 -0.0000 -0.0000
vn -0.0000 -0.0000 1.0000
vn 1.0000 -0.0000 -0.0000
vn -0.0000 1.0000 -0.0000
vt 0.625000 0.500000
vt 0.875000 0.500000
vt 0.875000 0.750000
vt 0.625000 0.750000
vt 0.375000 0.750000
vt 0.625000 1.000000
vt 0.375000 1.000000
vt 0.375000 0.000000
vt 0.625000 0.000000
vt 0.625000 0.250000
vt 0.375000 0.250000
vt 0.125000 0.500000
vt 0.375000 0.500000
vt 0.125000 0.750000
s 0
usemtl Material.009
f 49/85/37 51/88/37 55/87/37 53/86/37
f 52/89/38 56/91/38 55/90/38 51/88/38
f 56/92/39 54/95/39 53/94/39 55/93/39
f 54/96/40 56/98/40 52/89/40 50/97/40
f 50/97/41 52/89/41 51/88/41 49/85/41
f 54/95/42 50/97/42 49/85/42 53/94/42
o Cube.010
v 0.440952 5.693238 -15.700890
v 0.440952 5.693237 -10.367895
v 0.440952 4.760421 -15.700890
v 0.440952 4.760420 -10.367895
v -0.440952 5.693238 -15.700890
v -0.440952 5.693237 -10.367895
v -0.440952 4.760421 -15.700890
v -0.440952 4.760420 -10.367895
vn -0.0000 -0.0000 -1.0000
vn -0.0000 -1.0000 -0.0000
vn -1.0000 -0.0000 -0.0000
vn -0.0000 -0.0000 1.0000
vn 1.0000 -0.0000 -0.0000
vn -0.0000 1.0000 -0.0000
vt 0.625000 0.500000
vt 0.875000 0.500000
vt 0.875000 0.750000
vt 0.625000 0.750000
vt 0.375000 0.750000
vt 0.625000 1.000000
vt 0.375000 1.000000
vt 0.375000 0.000000
vt 0.625000 0.000000
vt 0.625000 0.250000
vt 0.375000 0.250000
vt 0.125000 0.500000
vt 0.375000 0.500000
vt 0.125000 0.750000
s 0
usemtl Material.010
f 57/99/43 59/102/43 63/101/43 61/100/43
f 60/103/44 64/105/44 63/104/44 59/102/44
f 64/106/45 62/109/45 61/108/45 63/107/45
f 62/110/46 64/112/46 60/103/46 58/111/46
f 58/111/47 60/103/47 59/102/47 57/99/47
f 62/109/48 58/111/48 57/99/48 61/108/48
o Cube.011
v 0.440952 5.489014 -14.667524
v 0.440952 0.156020 -14.667524
v 0.440952 5.489014 -15.600342
v 0.440952 0.156020 -15.600342
v -0.440952 5.489014 -14.667524
v -0.440952 0.156020 -14.667524
v -0.440952 5.489014 -15.600342
v -0.440952 0.156020 -15.600342
vn -0.0000 1.0000 -0.0000
vn -0.0000 -0.0000 -1.0000
vn -1.0000 -0.0000 -0.0000
vn -0.0000 -1.0000 -0.0000
vn 1.0000 -0.0000 -0.0000
vn -0.0000 -0.0000 1.0000
vt 0.625000 0.500000
vt 0.875000 0.500000
vt 0.875000 0.750000
vt 0.625000 0.750000
vt 0.375000 0.750000
vt 0.625000 1.000000
vt 0.375000 1.000000
vt 0.375000 0.000000
vt 0.625000 0.000000
vt 0.625000 0.250000
vt 0.375000 0.250000
vt 0.125000 0.500000
vt 0.375000 0.500000
vt 0.125000 0.750000
s 0
usemtl Material.011
f 65/113/49 67/116/49 71/115/49 69/114/49
f 68/117/50 72/119/50 71/118/50 67/116/50
f 72/120/51 70/123/51 69/122/51 71/121/51
f 70/124/52 72/126/52 68/117/52 66/125/52
f 66/125/53 68/117/53 67/116/53 65/113/53
f 70/123/54 66/125/54 65/113/54 69/122/54
o Cube.012
v 0.440952 5.489014 -10.222261
v 0.440952 0.156020 -10.222261
v 0.440952 5.489014 -11.155079
v 0.440952 0.156020 -11.155079
v -0.440952 5.489014 -10.222261
v -0.440952 0.156020 -10.222261
v -0.440952 5.489014 -11.155079
v -0.440952 0.156020 -11.155079
vn -0.0000 1.0000 -0.0000
vn -0.0000 -0.0000 -1.0000
vn -1.0000 -0.0000 -0.0000
vn -0.0000 -1.0000 -0.0000
vn 1.0000 -0.0000 -0.0000
vn -0.0000 -0.0000 1.0000
vt 0.625000 0.500000
vt 0.875000 0.500000
vt 0.875000 0.750000
vt 0.625000 0.750000
vt 0.375000 0.750000
vt 0.625000 1.000000
vt 0.375000 1.000000
vt 0.375000 0.000000
vt 0.625000 0.000000
vt 0.625000 0.250000
vt 0.375000 0.250000
vt 0.125000 0.500000
vt 0.375000 0.500000
vt 0.125000 0.750000
s 0
usemtl Material.012
f 73/127/55 75/130/55 79/129/55 77/128/55
f 76/131/56 80/133/56 79/132/56 75/130/56
f 80/134/57 78/137/57 77/136/57 79/135/57
f 78/138/58 80/140/58 76/131/58 74/139/58
f 74/139/59 76/131/59 75/130/59 73/127/59
f 78/137/60 74/139/60 73/127/60 77/136/60
o Cube.007
v 0.440952 5.489014 -7.667525
v 0.440952 0.156020 -7.667525
v 0.440952 5.489014 -8.600342
v 0.440952 0.156020 -8.600342
v -0.440952 5.489014 -7.667525
v -0.440952 0.156020 -7.667525
v -0.440952 5.489014 -8.600342
v -0.440952 0.156020 -8.600342
vn -0.0000 1.0000 -0.0000
vn -0.0000 -0.0000 -1.0000
vn -1.0000 -0.0000 -0.0000
vn -0.0000 -1.0000 -0.0000
vn 1.0000 -0.0000 -0.0000
vn -0.0000 -0.0000 1.0000
vt 0.625000 0.500000
vt 0.875000 0.500000
vt 0.875000 0.750000
vt 0.625000 0.750000
vt 0.375000 0.750000
vt 0.625000 1.000000
vt 0.375000 1.000000
vt 0.375000 0.000000
vt 0.625000 0.000000
vt 0.625000 0.250000
vt 0.375000 0.250000
vt 0.125000 0.500000
vt 0.375000 0.500000
vt 0.125000 0.750000
s 0
usemtl Material.019
f 81/141/61 83/144/61 87/143/61 85/142/61
f 84/145/62 88/147/62 87/146/62 83/144/62
f 88/148/63 86/151/63 85/150/63 87/149/63
f 86/152/64 88/154/64 84/145/64 82/153/64
f 82/153/65 84/145/65 83/144/65 81/141/65
f 86/151/66 82/153/66 81/141/66 85/150/66
o Cube.008
v 0.440952 5.693238 -8.700890
v 0.440952 5.693237 -3.367896
v 0.440952 4.760421 -8.700890
v 0.440952 4.760420 -3.367896
v -0.440952 5.693238 -8.700890
v -0.440952 5.693237 -3.367896
v -0.440952 4.760421 -8.700890
v -0.440952 4.760420 -3.367896
vn -0.0000 -0.0000 -1.0000
vn -0.0000 -1.0000 -0.0000
vn -1.0000 -0.0000 -0.0000
vn -0.0000 -0.0000 1.0000
vn 1.0000 -0.0000 -0.0000
vn -0.0000 1.0000 -0.0000
vt 0.625000 0.500000
vt 0.875000 0.500000
vt 0.875000 0.750000
vt 0.625000 0.750000
vt 0.375000 0.750000
vt 0.625000 1.000000
vt 0.375000 1.000000
vt 0.375000 0.000000
vt 0.625000 0.000000
vt 0.625000 0.250000
vt 0.375000 0.250000
vt 0.125000 0.500000
vt 0.375000 0.500000
vt 0.125000 0.750000
s 0
usemtl Material.020
f 89/155/67 91/158/67 95/157/67 93/156/67
f 92/159/68 96/161/68 95/160/68 91/158/68
f 96/162/69 94/165/69 93/164/69 95/163/69
f 94/166/70 96/168/70 92/159/70 90/167/70
f 90/167/71 92/159/71 91/158/71 89/155/71
f 94/165/72 90/167/72 89/155/72 93/164/72
o Cube.013
v 0.440952 5.489014 3.777738
v 0.440952 0.156020 3.777738
v 0.440952 5.489014 2.844922
v 0.440952 0.156020 2.844922
v -0.440952 5.489014 3.777738
v -0.440952 0.156020 3.777738
v -0.440952 5.489014 2.844922
v -0.440952 0.156020 2.844922
vn -0.0000 1.0000 -0.0000
vn -0.0000 -0.0000 -1.0000
vn -1.0000 -0.0000 -0.0000
vn -0.0000 -1.0000 -0.0000
vn 1.0000 -0.0000 -0.0000
vn -0.0000 -0.0000 1.0000
vt 0.625000 0.500000
vt 0.875000 0.500000
vt 0.875000 0.750000
vt 0.625000 0.750000
vt 0.375000 0.750000
vt 0.625000 1.000000
vt 0.375000 1.000000
vt 0.375000 0.000000
vt 0.625000 0.000000
vt 0.625000 0.250000
vt 0.375000 0.250000
vt 0.125000 0.500000
vt 0.375000 0.500000
vt 0.125000 0.750000
s 0
usemtl Material.021
f 97/169/73 99/172/73 103/171/73 101/170/73
f 100/173/74 104/175/74 103/174/74 99/172/74
f 104/176/75 102/179/75 101/178/75 103/177/75
f 102/180/76 104/182/76 100/173/76 98/181/76
f 98/181/77 100/173/77 99/172/77 97/169/77
f 102/179/78 98/181/78 97/169/78 101/178/78
o Cube.014
v 0.440952 5.489014 -0.667525
v 0.440952 0.156020 -0.667525
v 0.440952 5.489014 -1.600341
v 0.440952 0.156020 -1.600341
v -0.440952 5.489014 -0.667525
v -0.440952 0.156020 -0.667525
v -0.440952 5.489014 -1.600341
v -0.440952 0.156020 -1.600341
vn -0.0000 1.0000 -0.0000
vn -0.0000 -0.0000 -1.0000
vn -1.0000 -0.0000 -0.0000
vn -0.0000 -1.0000 -0.0000
vn 1.0000 -0.0000 -0.0000
vn -0.0000 -0.0000 1.0000
vt 0.625000 0.500000
vt 0.875000 0.500000
vt 0.875000 0.750000
vt 0.625000 0.750000
vt 0.375000 0.750000
vt 0.625000 1.000000
vt 0.375000 1.000000
vt 0.375000 0.000000
vt 0.625000 0.000000
vt 0.625000 0.250000
vt 0.375000 0.250000
vt 0.125000 0.500000
vt 0.375000 0.500000
vt 0.125000 0.750000
s 0
usemtl Material.022
f 105/183/79 107/186/79 111/185/79 109/184/79
f 108/187/80 112/189/80 111/188/80 107/186/80
f 112/190/81 110/193/81 109/192/81 111/191/81
f 110/194/82 112/196/82 108/187/82 106/195/82
f 106/195/83 108/187/83 107/186/83 105/183/83
f 110/193/84 106/195/84 105/183/84 109/192/84
o Cube.015
v 0.440952 5.693238 -1.700889
v 0.440952 5.693237 3.632104
v 0.440952 4.760421 -1.700889
v 0.440952 4.760420 3.632104
v -0.440952 5.693238 -1.700889
v -0.440952 5.693237 3.632104
v -0.440952 4.760421 -1.700889
v -0.440952 4.760420 3.632104
vn -0.0000 -0.0000 -1.0000
vn -0.0000 -1.0000 -0.0000
vn -1.0000 -0.0000 -0.0000
vn -0.0000 -0.0000 1.0000
vn 1.0000 -0.0000 -0.0000
vn -0.0000 1.0000 -0.0000
vt 0.625000 0.500000
vt 0.875000 0.500000
vt 0.875000 0.750000
vt 0.625000 0.750000
vt 0.375000 0.750000
vt 0.625000 1.000000
vt 0.375000 1.000000
vt 0.375000 0.000000
vt 0.625000 0.000000
vt 0.625000 0.250000
vt 0.375000 0.250000
vt 0.125000 0.500000
vt 0.375000 0.500000
vt 0.125000 0.750000
s 0
usemtl Material.023
f 113/197/85 115/200/85 119/199/85 117/198/85
f 116/201/86 120/203/86 119/202/86 115/200/86
f 120/204/87 118/207/87 117/206/87 119/205/87
f 118/208/88 120/210/88 116/201/88 114/209/88
f 114/209/89 116/201/89 115/200/89 113/197/89
f 118/207/90 114/209/90 113/197/90 117/206/90
o Cube.016
v 0.440952 0.715296 -3.199832
v 0.440952 0.715295 5.266500
v 0.440952 -0.217521 -3.199832
v 0.440952 -0.217522 5.266500
v -0.440952 0.715296 -3.199832
v -0.440952 0.715295 5.266500
v -0.440952 -0.217521 -3.199832
v -0.440952 -0.217522 5.266500
vn -0.0000 -0.0000 -1.0000
vn -0.0000 -1.0000 -0.0000
vn -1.0000 -0.0000 -0.0000
vn -0.0000 -0.0000 1.0000
vn 1.0000 -0.0000 -0.0000
vn -0.0000 1.0000 -0.0000
vt 0.625000 0.500000
vt 0.875000 0.500000
vt 0.875000 0.750000
vt 0.625000 0.750000
vt 0.375000 0.750000
vt 0.625000 1.000000
vt 0.375000 1.000000
vt 0.375000 0.000000
vt 0.625000 0.000000
vt 0.625000 0.250000
vt 0.375000 0.250000
vt 0.125000 0.500000
vt 0.375000 0.500000
vt 0.125000 0.750000
s 0
usemtl Material.024
f 121/211/91 123/214/91 127/213/91 125/212/91
f 124/215/92 128/217/92 127/216/92 123/214/92
f 128/218/93 126/221/93 125/220/93 127/219/93
f 126/222/94 128/224/94 124/215/94 122/223/94
f 122/223/95 124/215/95 123/214/95 121/211/95
f 126/221/96 122/223/96 121/211/96 125/220/96
o Cube.017
v 0.440952 0.365897 -2.292975
v 0.440952 -1.622255 -2.292975
v 0.440952 0.365897 -3.225792
v 0.440952 -1.622255 -3.225792
v -0.440952 0.365897 -2.292975
v -0.440952 -1.622255 -2.292975
v -0.440952 0.365897 -3.225792
v -0.440952 -1.622255 -3.225792
vn -0.0000 1.0000 -0.0000
vn -0.0000 -0.0000 -1.0000
vn -1.0000 -0.0000 -0.0000
vn -0.0000 -1.0000 -0.0000
vn 1.0000 -0.0000 -0.0000
vn -0.0000 -0.0000 1.0000
vt 0.625000 0.500000
vt 0.875000 0.500000
vt 0.875000 0.750000
vt 0.625000 0.750000
vt 0.375000 0.750000
vt 0.625000 1.000000
vt 0.375000 1.000000
vt 0.375000 0.000000
vt 0.625000 0.000000
vt 0.625000 0.250000
vt 0.375000 0.250000
vt 0.125000 0.500000
vt 0.375000 0.500000
vt 0.125000 0.750000
s 0
usemtl Material.025
f 129/225/97 131/228/97 135/227/97 133/226/97
f 132/229/98 136/231/98 135/230/98 131/228/98
f 136/232/99 134/235/99 133/234/99 135/233/99
f 134/236/100 136/238/100 132/229/100 130/237/100
f 130/237/101 132/229/101 131/228/101 129/225/101
f 134/235/102 130/237/102 129/225/102 133/234/102
o Cube.018
v 0.440952 0.061125 5.335461
v 0.440952 -1.927027 5.335461
v 0.440952 0.061125 4.402645
v 0.440952 -1.927027 4.402645
v -0.440952 0.061125 5.335461
v -0.440952 -1.927027 5.335461
v -0.440952 0.061125 4.402645
v -0.440952 -1.927027 4.402645
vn -0.0000 1.0000 -0.0000
vn -0.0000 -0.0000 -1.0000
vn -1.0000 -0.0000 -0.0000
vn -0.0000 -1.0000 -0.0000
vn 1.0000 -0.0000 -0.0000
vn -0.0000 -0.0000 1.0000
vt 0.625000 0.500000
vt 0.875000 0.500000
vt 0.875000 0.750000
vt 0.625000 0.750000
vt 0.375000 0.750000
vt 0.625000 1.000000
vt 0.375000 1.000000
vt 0.375000 0.000000
vt 0.625000 0.000000
vt 0.625000 0.250000
vt 0.375000 0.250000
vt 0.125000 0.500000
vt 0.375000 0.500000
vt 0.125000 0.750000
s 0
usemtl Material.026
f 137/239/103 139/242/103 143/241/103 141/240/103
f 140/243/104 144/245/104 143/244/104 139/242/104
f 144/246/105 142/249/105 141/248/105 143/247/105
f 142/250/106 144/252/106 140/243/106 138/251/106
f 138/251/107 140/243/107 139/242/107 137/239/107
f 142/249/108 138/251/108 137/239/108 141/248/108
o Cube.019
v 0.440952 6.527160 11.653591
v 0.440952 -0.949854 11.653591
v 0.440952 6.527160 10.720774
v 0.440952 -0.949854 10.720774
v -0.440952 6.527160 11.653591
v -0.440952 -0.949854 11.653591
v -0.440952 6.527160 10.720774
v -0.440952 -0.949854 10.720774
vn -0.0000 1.0000 -0.0000
vn -0.0000 -0.0000 -1.0000
vn -1.0000 -0.0000 -0.0000
vn -0.0000 -1.0000 -0.0000
vn 1.0000 -0.0000 -0.0000
vn -0.0000 -0.0000 1.0000
vt 0.625000 0.500000
vt 0.875000 0.500000
vt 0.875000 0.750000
vt 0.625000 0.750000
vt 0.375000 0.750000
vt 0.625000 1.000000
vt 0.375000 1.000000
vt 0.375000 0.000000
vt 0.625000 0.000000
vt 0.625000 0.250000
vt 0.375000 0.250000
vt 0.125000 0.500000
vt 0.375000 0.500000
vt 0.125000 0.750000
s 0
usemtl Material.027
f 145/253/109 147/256/109 151/255/109 149/254/109
f 148/257/110 152/259/110 151/258/110 147/256/110
f 152/260/111 150/263/111 149/262/111 151/261/111
f 150/264/112 152/266/112 148/257/112 146/265/112
f 146/265/113 148/257/113 147/256/113 145/253/113
f 150/263/114 146/265/114 145/253/114 149/262/114
o Cube.020
v 0.440952 6.527160 8.427416
v 0.440952 -0.949854 8.427416
v 0.440952 6.527160 7.494599
v 0.440952 -0.949854 7.494599
v -0.440952 6.527160 8.427416
v -0.440952 -0.949854 8.427416
v -0.440952 6.527160 7.494599
v -0.440952 -0.949854 7.494599
vn -0.0000 1.0000 -0.0000
vn -0.0000 -0.0000 -1.0000
vn -1.0000 -0.0000 -0.0000
vn -0.0000 -1.0000 -0.0000
vn 1.0000 -0.0000 -0.0000
vn -0.0000 -0.0000 1.0000
vt 0.625000 0.500000
vt 0.875000 0.500000
vt 0.875000 0.750000
vt 0.625000 0.750000
vt 0.375000 0.750000
vt 0.625000 1.000000
vt 0.375000 1.000000
vt 0.375000 0.000000
vt 0.625000 0.000000
vt 0.625000 0.250000
vt 0.375000 0.250000
vt 0.125000 0.500000
vt 0.375000 0.500000
vt 0.125000 0.750000
s 0
usemtl Material.028
f 153/267/115 155/270/115 159/269/115 157/268/115
f 156/271/116 160/273/116 159/272/116 155/270/116
f 160/274/117 158/277/117 157/276/117 159/275/117
f 158/278/118 160/280/118 156/271/118 154/279/118
f 154/279/119 156/271/119 155/270/119 153/267/119
f 158/277/120 154/279/120 153/267/120 157/276/120
o Cube.021
v 0.440952 6.554725 8.117966
v 0.440952 6.554725 10.952394
v 0.440952 5.621909 8.117966
v 0.440952 5.621909 10.952394
v -0.440952 6.554725 8.117966
v -0.440952 6.554725 10.952394
v -0.440952 5.621909 8.117966
v -0.440952 5.621909 10.952394
vn -0.0000 -0.0000 -1.0000
vn -0.0000 -1.0000 -0.0000
vn -1.0000 -0.0000 -0.0000
vn -0.0000 -0.0000 1.0000
vn 1.0000 -0.0000 -0.0000
vn -0.0000 1.0000 -0.0000
vt 0.625000 0.500000
vt 0.875000 0.500000
vt 0.875000 0.750000
vt 0.625000 0.750000
vt 0.375000 0.750000
vt 0.625000 1.000000
vt 0.375000 1.000000
vt 0.375000 0.000000
vt 0.625000 0.000000
vt 0.625000 0.250000
vt 0.375000 0.250000
vt 0.125000 0.500000
vt 0.375000 0.500000
vt 0.125000 0.750000
s 0
usemtl Material.029
f 161/281/121 163/284/121 167/283/121 165/282/121
f 164/285/122 168/287/122 167/286/122 163/284/122
f 168/288/123 166/291/123 165/290/123 167/289/123
f 166/292/124 168/294/124 164/285/124 162/293/124
f 162/293/125 164/285/125 163/284/125 161/281/125
f 166/291/126 162/293/126 161/281/126 165/290/126
o Cube.022
v 0.440952 3.043753 8.099966
v 0.440952 3.043753 10.934395
v 0.440952 2.110937 8.099966
v 0.440952 2.110936 10.934395
v -0.440952 3.043753 8.099966
v -0.440952 3.043753 10.934395
v -0.440952 2.110937 8.099966
v -0.440952 2.110936 10.934395
vn -0.0000 -0.0000 -1.0000
vn -0.0000 -1.0000 -0.0000
vn -1.0000 -0.0000 -0.0000
vn -0.0000 -0.0000 1.0000
vn 1.0000 -0.0000 -0.0000
vn -0.0000 1.0000 -0.0000
vt 0.625000 0.500000
vt 0.875000 0.500000
vt 0.875000 0.750000
vt 0.625000 0.750000
vt 0.375000 0.750000
vt 0.625000 1.000000
vt 0.375000 1.000000
vt 0.375000 0.000000
vt 0.625000 0.000000
vt 0.625000 0.250000
vt 0.375000 0.250000
vt 0.125000 0.500000
vt 0.375000 0.500000
vt 0.125000 0.750000
s 0
usemtl Material.030
f 169/295/127 171/298/127 175/297/127 173/296/127
f 172/299/128 176/301/128 175/300/128 171/298/128
f 176/302/129 174/305/129 173/304/129 175/303/129
f 174/306/130 176/308/130 172/299/130 170/307/130
f 170/307/131 172/299/131 171/298/131 169/295/131
f 174/305/132 170/307/132 169/295/132 173/304/132
o Cube.023
v 0.440952 3.238807 14.780569
v 0.440952 3.238807 17.614996
v 0.440952 2.305991 14.780569
v 0.440952 2.305990 17.614996
v -0.440952 3.238807 14.780569
v -0.440952 3.238807 17.614996
v -0.440952 2.305991 14.780569
v -0.440952 2.305990 17.614996
vn -0.0000 -0.0000 -1.0000
vn -0.0000 -1.0000 -0.0000
vn -1.0000 -0.0000 -0.0000
vn -0.0000 -0.0000 1.0000
vn 1.0000 -0.0000 -0.0000
vn -0.0000 1.0000 -0.0000
vt 0.625000 0.500000
vt 0.875000 0.500000
vt 0.875000 0.750000
vt 0.625000 0.750000
vt 0.375000 0.750000
vt 0.625000 1.000000
vt 0.375000 1.000000
vt 0.375000 0.000000
vt 0.625000 0.000000
vt 0.625000 0.250000
vt 0.375000 0.250000
vt 0.125000 0.500000
vt 0.375000 0.500000
vt 0.125000 0.750000
s 0
usemtl Material.031
f 177/309/133 179/312/133 183/311/133 181/310/133
f 180/313/134 184/315/134 183/314/134 179/312/134
f 184/316/135 182/319/135 181/318/135 183/317/135
f 182/320/136 184/322/136 180/313/136 178/321/136
f 178/321/137 180/313/137 179/312/137 177/309/137
f 182/319/138 178/321/138 177/309/138 181/318/138
o Cube.024
v 0.440952 6.722214 15.108018
v 0.440952 -0.754800 15.108018
v 0.440952 6.722214 14.175200
v 0.440952 -0.754800 14.175200
v -0.440952 6.722214 15.108018
v -0.440952 -0.754800 15.108018
v -0.440952 6.722214 14.175200
v -0.440952 -0.754800 14.175200
vn -0.0000 1.0000 -0.0000
vn -0.0000 -0.0000 -1.0000
vn -1.0000 -0.0000 -0.0000
vn -0.0000 -1.0000 -0.0000
vn 1.0000 -0.0000 -0.0000
vn -0.0000 -0.0000 1.0000
vt 0.625000 0.500000
vt 0.875000 0.500000
vt 0.875000 0.750000
vt 0.625000 0.750000
vt 0.375000 0.750000
vt 0.625000 1.000000
vt 0.375000 1.000000
vt 0.375000 0.000000
vt 0.625000 0.000000
vt 0.625000 0.250000
vt 0.375000 0.250000
vt 0.125000 0.500000
vt 0.375000 0.500000
vt 0.125000 0.750000
s 0
usemtl Material.032
f 185/323/139 187/326/139 191/325/139 189/324/139
f 188/327/140 192/329/140 191/328/140 187/326/140
f 192/330/141 190/333/141 189/332/141 191/331/141
f 190/334/142 192/336/142 188/327/142 186/335/142
f 186/335/143 188/327/143 187/326/143 185/323/143
f 190/333/144 186/335/144 185/323/144 189/332/144
o Cube.025
v 0.440952 6.722214 18.334192
v 0.440952 -0.754800 18.334192
v 0.440952 6.722214 17.401377
v 0.440952 -0.754800 17.401377
v -0.440952 6.722214 18.334192
v -0.440952 -0.754800 18.334192
v -0.440952 6.722214 17.401377
v -0.440952 -0.754800 17.401377
vn -0.0000 1.0000 -0.0000
vn -0.0000 -0.0000 -1.0000
vn -1.0000 -0.0000 -0.0000
vn -0.0000 -1.0000 -0.0000
vn 1.0000 -0.0000 -0.0000
vn -0.0000 -0.0000 1.0000
vt 0.625000 0.500000
vt 0.875000 0.500000
vt 0.875000 0.750000
vt 0.625000 0.750000
vt 0.375000 0.750000
vt 0.625000 1.000000
vt 0.375000 1.000000
vt 0.375000 0.000000
vt 0.625000 0.000000
vt 0.625000 0.250000
vt 0.375000 0.250000
vt 0.125000 0.500000
vt 0.375000 0.500000
vt 0.125000 0.750000
s 0
usemtl Material.033
f 193/337/145 195/340/145 199/339/145 197/338/145
f 196/341/146 200/343/146 199/342/146 195/340/146
f 200/344/147 198/347/147 197/346/147 199/345/147
f 198/348/148 200/350/148 196/341/148 194/349/148
f 194/349/149 196/341/149 195/340/149 193/337/149
f 198/347/150 194/349/150 193/337/150 197/346/150
