# Blender 3.6.2
# www.blender.org
mtllib 11.mtl
o Plane
v -0.051133 0.379874 0.379874
v -0.051133 -0.379874 0.379874
v -0.051133 0.379874 -0.379874
v -0.051133 -0.379874 -0.379874
vn 1.0000 -0.0000 -0.0000
vt 0.000000 0.000000
vt 1.000000 0.000000
vt 1.000000 1.000000
vt 0.000000 1.000000
s 1
f 1/1/1 2/2/1 4/3/1 3/4/1
o Plane.001
v 0.236948 0.379874 0.379874
v 0.236948 -0.379874 0.379874
v 0.236948 0.379874 -0.379874
v 0.236948 -0.379874 -0.379874
vn 1.0000 -0.0000 -0.0000
vt 0.000000 0.000000
vt 1.000000 0.000000
vt 1.000000 1.000000
vt 0.000000 1.000000
s 1
f 5/5/2 6/6/2 8/7/2 7/8/2
